<mxfile host="app.diagrams.net" modified="2023-03-31T22:51:34.171Z" agent="Mozilla/5.0 (Macintosh; Intel Mac OS X 10.15; rv:109.0) Gecko/20100101 Firefox/111.0" etag="6xZcideTE7x4lCmEAC6G" version="21.1.1" type="github">
  <diagram id="Z-3wMT12V0U_0ovYJJmp" name="Page-1">
    <mxGraphModel dx="1434" dy="369" grid="1" gridSize="10" guides="1" tooltips="1" connect="1" arrows="1" fold="1" page="0" pageScale="1" pageWidth="827" pageHeight="1169" math="0" shadow="0">
      <root>
        <mxCell id="0" />
        <mxCell id="1" parent="0" />
        <mxCell id="oAk6PpLKIb-QyxV9qV76-31" style="edgeStyle=orthogonalEdgeStyle;rounded=0;orthogonalLoop=1;jettySize=auto;html=1;endArrow=none;endFill=0;" parent="1" source="oAk6PpLKIb-QyxV9qV76-27" target="oAk6PpLKIb-QyxV9qV76-20" edge="1">
          <mxGeometry relative="1" as="geometry" />
        </mxCell>
        <mxCell id="oAk6PpLKIb-QyxV9qV76-27" value="" style="verticalAlign=top;align=left;spacingTop=8;spacingLeft=2;spacingRight=12;shape=cube;size=10;direction=south;fontStyle=4;html=1;" parent="1" vertex="1">
          <mxGeometry x="850" y="870" width="420" height="170" as="geometry" />
        </mxCell>
        <mxCell id="oAk6PpLKIb-QyxV9qV76-32" style="edgeStyle=orthogonalEdgeStyle;rounded=0;orthogonalLoop=1;jettySize=auto;html=1;endArrow=none;endFill=0;" parent="1" source="oAk6PpLKIb-QyxV9qV76-24" target="oAk6PpLKIb-QyxV9qV76-20" edge="1">
          <mxGeometry relative="1" as="geometry" />
        </mxCell>
        <mxCell id="oAk6PpLKIb-QyxV9qV76-24" value="" style="verticalAlign=top;align=left;spacingTop=8;spacingLeft=2;spacingRight=12;shape=cube;size=10;direction=south;fontStyle=4;html=1;" parent="1" vertex="1">
          <mxGeometry x="850" y="660" width="420" height="170" as="geometry" />
        </mxCell>
        <mxCell id="oAk6PpLKIb-QyxV9qV76-30" style="edgeStyle=orthogonalEdgeStyle;rounded=0;orthogonalLoop=1;jettySize=auto;html=1;endArrow=none;endFill=0;" parent="1" source="oAk6PpLKIb-QyxV9qV76-23" target="oAk6PpLKIb-QyxV9qV76-20" edge="1">
          <mxGeometry relative="1" as="geometry" />
        </mxCell>
        <mxCell id="oAk6PpLKIb-QyxV9qV76-23" value="" style="verticalAlign=top;align=left;spacingTop=8;spacingLeft=2;spacingRight=12;shape=cube;size=10;direction=south;fontStyle=4;html=1;" parent="1" vertex="1">
          <mxGeometry x="100" y="870" width="440" height="170" as="geometry" />
        </mxCell>
        <mxCell id="oAk6PpLKIb-QyxV9qV76-29" style="edgeStyle=orthogonalEdgeStyle;rounded=0;orthogonalLoop=1;jettySize=auto;html=1;endArrow=none;endFill=0;" parent="1" source="oAk6PpLKIb-QyxV9qV76-21" target="oAk6PpLKIb-QyxV9qV76-20" edge="1">
          <mxGeometry relative="1" as="geometry" />
        </mxCell>
        <mxCell id="oAk6PpLKIb-QyxV9qV76-21" value="" style="verticalAlign=top;align=left;spacingTop=8;spacingLeft=2;spacingRight=12;shape=cube;size=10;direction=south;fontStyle=4;html=1;" parent="1" vertex="1">
          <mxGeometry x="100" y="670" width="440" height="170" as="geometry" />
        </mxCell>
        <mxCell id="oAk6PpLKIb-QyxV9qV76-22" style="edgeStyle=orthogonalEdgeStyle;rounded=0;orthogonalLoop=1;jettySize=auto;html=1;endArrow=none;endFill=0;" parent="1" source="oAk6PpLKIb-QyxV9qV76-2" target="oAk6PpLKIb-QyxV9qV76-39" edge="1">
          <mxGeometry relative="1" as="geometry">
            <mxPoint x="350" y="756" as="targetPoint" />
          </mxGeometry>
        </mxCell>
        <mxCell id="oAk6PpLKIb-QyxV9qV76-2" value="saving-accounts.jar" style="html=1;dropTarget=0;" parent="1" vertex="1">
          <mxGeometry x="130" y="711" width="180" height="90" as="geometry" />
        </mxCell>
        <mxCell id="oAk6PpLKIb-QyxV9qV76-3" value="" style="shape=module;jettyWidth=8;jettyHeight=4;" parent="oAk6PpLKIb-QyxV9qV76-2" vertex="1">
          <mxGeometry x="1" width="20" height="20" relative="1" as="geometry">
            <mxPoint x="-27" y="7" as="offset" />
          </mxGeometry>
        </mxCell>
        <mxCell id="oAk6PpLKIb-QyxV9qV76-25" style="edgeStyle=orthogonalEdgeStyle;rounded=0;orthogonalLoop=1;jettySize=auto;html=1;endArrow=none;endFill=0;" parent="1" source="oAk6PpLKIb-QyxV9qV76-4" target="oAk6PpLKIb-QyxV9qV76-35" edge="1">
          <mxGeometry relative="1" as="geometry">
            <mxPoint x="350" y="955" as="targetPoint" />
          </mxGeometry>
        </mxCell>
        <mxCell id="oAk6PpLKIb-QyxV9qV76-4" value="checking-accounts.jar" style="html=1;dropTarget=0;" parent="1" vertex="1">
          <mxGeometry x="130" y="910" width="180" height="90" as="geometry" />
        </mxCell>
        <mxCell id="oAk6PpLKIb-QyxV9qV76-5" value="" style="shape=module;jettyWidth=8;jettyHeight=4;" parent="oAk6PpLKIb-QyxV9qV76-4" vertex="1">
          <mxGeometry x="1" width="20" height="20" relative="1" as="geometry">
            <mxPoint x="-27" y="7" as="offset" />
          </mxGeometry>
        </mxCell>
        <mxCell id="oAk6PpLKIb-QyxV9qV76-26" style="edgeStyle=orthogonalEdgeStyle;rounded=0;orthogonalLoop=1;jettySize=auto;html=1;endArrow=none;endFill=0;" parent="1" source="oAk6PpLKIb-QyxV9qV76-6" target="oAk6PpLKIb-QyxV9qV76-42" edge="1">
          <mxGeometry relative="1" as="geometry">
            <mxPoint x="1110" y="745" as="targetPoint" />
          </mxGeometry>
        </mxCell>
        <mxCell id="oAk6PpLKIb-QyxV9qV76-6" value="credit-card.jar" style="html=1;dropTarget=0;" parent="1" vertex="1">
          <mxGeometry x="880" y="700" width="180" height="90" as="geometry" />
        </mxCell>
        <mxCell id="oAk6PpLKIb-QyxV9qV76-7" value="" style="shape=module;jettyWidth=8;jettyHeight=4;" parent="oAk6PpLKIb-QyxV9qV76-6" vertex="1">
          <mxGeometry x="1" width="20" height="20" relative="1" as="geometry">
            <mxPoint x="-27" y="7" as="offset" />
          </mxGeometry>
        </mxCell>
        <mxCell id="oAk6PpLKIb-QyxV9qV76-28" style="edgeStyle=orthogonalEdgeStyle;rounded=0;orthogonalLoop=1;jettySize=auto;html=1;endArrow=none;endFill=0;" parent="1" source="oAk6PpLKIb-QyxV9qV76-8" target="oAk6PpLKIb-QyxV9qV76-45" edge="1">
          <mxGeometry relative="1" as="geometry">
            <mxPoint x="1120" y="955" as="targetPoint" />
          </mxGeometry>
        </mxCell>
        <mxCell id="oAk6PpLKIb-QyxV9qV76-8" value="payment.jar" style="html=1;dropTarget=0;" parent="1" vertex="1">
          <mxGeometry x="880" y="910" width="180" height="90" as="geometry" />
        </mxCell>
        <mxCell id="oAk6PpLKIb-QyxV9qV76-9" value="" style="shape=module;jettyWidth=8;jettyHeight=4;" parent="oAk6PpLKIb-QyxV9qV76-8" vertex="1">
          <mxGeometry x="1" width="20" height="20" relative="1" as="geometry">
            <mxPoint x="-27" y="7" as="offset" />
          </mxGeometry>
        </mxCell>
        <mxCell id="oAk6PpLKIb-QyxV9qV76-34" style="edgeStyle=orthogonalEdgeStyle;rounded=0;orthogonalLoop=1;jettySize=auto;html=1;endArrow=none;endFill=0;" parent="1" source="oAk6PpLKIb-QyxV9qV76-20" target="oAk6PpLKIb-QyxV9qV76-33" edge="1">
          <mxGeometry relative="1" as="geometry" />
        </mxCell>
        <mxCell id="oAk6PpLKIb-QyxV9qV76-20" value="Docker Registry" style="verticalAlign=top;align=left;spacingTop=8;spacingLeft=2;spacingRight=12;shape=cube;size=10;direction=south;fontStyle=4;html=1;" parent="1" vertex="1">
          <mxGeometry x="610" y="801" width="180" height="120" as="geometry" />
        </mxCell>
        <mxCell id="oAk6PpLKIb-QyxV9qV76-33" value="App container management" style="verticalAlign=top;align=left;spacingTop=8;spacingLeft=2;spacingRight=12;shape=cube;size=10;direction=south;fontStyle=4;html=1;" parent="1" vertex="1">
          <mxGeometry x="610" y="1040" width="180" height="120" as="geometry" />
        </mxCell>
        <mxCell id="oAk6PpLKIb-QyxV9qV76-35" value="Deployment spec" style="swimlane;fontStyle=0;childLayout=stackLayout;horizontal=1;startSize=26;fillColor=none;horizontalStack=0;resizeParent=1;resizeParentMax=0;resizeLast=0;collapsible=1;marginBottom=0;" parent="1" vertex="1">
          <mxGeometry x="360" y="916" width="140" height="78" as="geometry" />
        </mxCell>
        <mxCell id="oAk6PpLKIb-QyxV9qV76-36" value="Dockerfile" style="text;strokeColor=none;fillColor=none;align=left;verticalAlign=top;spacingLeft=4;spacingRight=4;overflow=hidden;rotatable=0;points=[[0,0.5],[1,0.5]];portConstraint=eastwest;" parent="oAk6PpLKIb-QyxV9qV76-35" vertex="1">
          <mxGeometry y="26" width="140" height="26" as="geometry" />
        </mxCell>
        <mxCell id="oAk6PpLKIb-QyxV9qV76-37" value="deployment.json" style="text;strokeColor=none;fillColor=none;align=left;verticalAlign=top;spacingLeft=4;spacingRight=4;overflow=hidden;rotatable=0;points=[[0,0.5],[1,0.5]];portConstraint=eastwest;" parent="oAk6PpLKIb-QyxV9qV76-35" vertex="1">
          <mxGeometry y="52" width="140" height="26" as="geometry" />
        </mxCell>
        <mxCell id="oAk6PpLKIb-QyxV9qV76-39" value="Deployment spec" style="swimlane;fontStyle=0;childLayout=stackLayout;horizontal=1;startSize=26;fillColor=none;horizontalStack=0;resizeParent=1;resizeParentMax=0;resizeLast=0;collapsible=1;marginBottom=0;" parent="1" vertex="1">
          <mxGeometry x="360" y="717" width="140" height="78" as="geometry" />
        </mxCell>
        <mxCell id="oAk6PpLKIb-QyxV9qV76-40" value="Dockerfile" style="text;strokeColor=none;fillColor=none;align=left;verticalAlign=top;spacingLeft=4;spacingRight=4;overflow=hidden;rotatable=0;points=[[0,0.5],[1,0.5]];portConstraint=eastwest;" parent="oAk6PpLKIb-QyxV9qV76-39" vertex="1">
          <mxGeometry y="26" width="140" height="26" as="geometry" />
        </mxCell>
        <mxCell id="oAk6PpLKIb-QyxV9qV76-41" value="deployment.json" style="text;strokeColor=none;fillColor=none;align=left;verticalAlign=top;spacingLeft=4;spacingRight=4;overflow=hidden;rotatable=0;points=[[0,0.5],[1,0.5]];portConstraint=eastwest;" parent="oAk6PpLKIb-QyxV9qV76-39" vertex="1">
          <mxGeometry y="52" width="140" height="26" as="geometry" />
        </mxCell>
        <mxCell id="oAk6PpLKIb-QyxV9qV76-42" value="Deployment spec" style="swimlane;fontStyle=0;childLayout=stackLayout;horizontal=1;startSize=26;fillColor=none;horizontalStack=0;resizeParent=1;resizeParentMax=0;resizeLast=0;collapsible=1;marginBottom=0;" parent="1" vertex="1">
          <mxGeometry x="1100" y="706" width="140" height="78" as="geometry" />
        </mxCell>
        <mxCell id="oAk6PpLKIb-QyxV9qV76-43" value="Dockerfile" style="text;strokeColor=none;fillColor=none;align=left;verticalAlign=top;spacingLeft=4;spacingRight=4;overflow=hidden;rotatable=0;points=[[0,0.5],[1,0.5]];portConstraint=eastwest;" parent="oAk6PpLKIb-QyxV9qV76-42" vertex="1">
          <mxGeometry y="26" width="140" height="26" as="geometry" />
        </mxCell>
        <mxCell id="oAk6PpLKIb-QyxV9qV76-44" value="deployment.json" style="text;strokeColor=none;fillColor=none;align=left;verticalAlign=top;spacingLeft=4;spacingRight=4;overflow=hidden;rotatable=0;points=[[0,0.5],[1,0.5]];portConstraint=eastwest;" parent="oAk6PpLKIb-QyxV9qV76-42" vertex="1">
          <mxGeometry y="52" width="140" height="26" as="geometry" />
        </mxCell>
        <mxCell id="oAk6PpLKIb-QyxV9qV76-45" value="Deployment spec" style="swimlane;fontStyle=0;childLayout=stackLayout;horizontal=1;startSize=26;fillColor=none;horizontalStack=0;resizeParent=1;resizeParentMax=0;resizeLast=0;collapsible=1;marginBottom=0;" parent="1" vertex="1">
          <mxGeometry x="1100" y="916" width="140" height="78" as="geometry" />
        </mxCell>
        <mxCell id="oAk6PpLKIb-QyxV9qV76-46" value="Dockerfile" style="text;strokeColor=none;fillColor=none;align=left;verticalAlign=top;spacingLeft=4;spacingRight=4;overflow=hidden;rotatable=0;points=[[0,0.5],[1,0.5]];portConstraint=eastwest;" parent="oAk6PpLKIb-QyxV9qV76-45" vertex="1">
          <mxGeometry y="26" width="140" height="26" as="geometry" />
        </mxCell>
        <mxCell id="oAk6PpLKIb-QyxV9qV76-47" value="deployment.json" style="text;strokeColor=none;fillColor=none;align=left;verticalAlign=top;spacingLeft=4;spacingRight=4;overflow=hidden;rotatable=0;points=[[0,0.5],[1,0.5]];portConstraint=eastwest;" parent="oAk6PpLKIb-QyxV9qV76-45" vertex="1">
          <mxGeometry y="52" width="140" height="26" as="geometry" />
        </mxCell>
      </root>
    </mxGraphModel>
  </diagram>
</mxfile>
